<svg xmlns="http://www.w3.org/2000/svg" width="10000" height="1548" viewBox="0 0 10000 1548" version="1.1"><path d="M 976 202.668 C 956.273 203.379, 931.404 205.411, 910.500 208.021 C 795.979 222.317, 716.961 263.411, 672.628 331.728 C 660.440 350.510, 649.481 375.017, 642.993 398 C 641.363 403.775, 624.043 478.411, 604.505 563.858 C 564.696 737.953, 567.541 721.591, 575.114 732.932 C 589.968 755.177, 643.342 786.594, 722.958 819.957 C 824.695 862.588, 976.970 905.342, 1182.770 949.056 C 1195.390 951.736, 1197.963 952.577, 1197.598 953.900 C 1197.354 954.780, 1187.355 998.138, 1175.376 1050.250 L 1153.596 1145 811.866 1145 C 487.276 1145, 470.108 1145.088, 469.606 1146.750 C 469.315 1147.713, 458.686 1193.950, 445.985 1249.500 C 433.284 1305.050, 422.640 1351.522, 422.332 1352.772 L 421.772 1355.043 843.136 1354.697 C 1266.304 1354.349, 1270.079 1354.319, 1301.500 1350.969 C 1386.507 1341.906, 1451.109 1320.117, 1499.566 1284.163 C 1519.056 1269.701, 1542.619 1244.008, 1555.718 1222.933 C 1565.533 1207.142, 1575.386 1184.801, 1580.918 1165.792 C 1582.632 1159.902, 1600.923 1082.952, 1621.565 994.792 C 1662.327 820.696, 1660.613 829.418, 1655.837 820.382 C 1648.264 806.052, 1627.629 788.162, 1600.873 772.728 C 1511.309 721.065, 1333.837 661.602, 1073.586 596.058 C 1051.634 590.530, 1033.594 585.892, 1033.497 585.753 C 1033.401 585.614, 1042.362 546.688, 1053.410 499.250 L 1073.499 413 1414.669 413 L 1755.840 413 1757.370 406.250 C 1758.211 402.538, 1768.822 355.725, 1780.950 302.222 C 1793.077 248.719, 1803 204.281, 1803 203.472 C 1803 202.178, 1753.398 202.024, 1393.250 202.199 C 1167.887 202.308, 980.125 202.519, 976 202.668 M 3284.974 202.250 C 3284.960 202.387, 3274.231 249.750, 3261.132 307.500 L 3237.316 412.500 3616.658 412.751 C 3825.296 412.890, 3995.995 413.340, 3995.988 413.751 C 3995.981 414.163, 3958.023 578.750, 3911.635 779.500 L 3827.294 1144.500 3664.147 1144.753 C 3574.416 1144.892, 3501 1144.726, 3501 1144.384 C 3501 1143.913, 3643.007 530.304, 3645.674 519.250 L 3646.217 517 3429.727 517 L 3213.237 517 3212.184 521.250 C 3211.605 523.587, 3168.325 711.350, 3116.006 938.500 C 3063.687 1165.650, 3020.652 1352.287, 3020.373 1353.250 C 3019.890 1354.915, 3041.588 1354.999, 3466.183 1354.985 C 3750.615 1354.976, 3918.847 1354.609, 3930 1353.973 C 4053.048 1346.955, 4138.933 1317.822, 4195.340 1263.966 C 4224.001 1236.602, 4244.809 1201.791, 4256.355 1161.891 C 4258.535 1154.358, 4429.002 413.697, 4432.169 398 C 4433.028 393.744, 4433.460 383.904, 4433.422 369.500 C 4433.356 344.557, 4431.753 331.608, 4426.800 316 C 4404.796 246.655, 4325.964 209.280, 4188.500 203.021 C 4169.787 202.169, 3285.061 201.414, 3284.974 202.250 M 6062.682 204.750 C 6061.400 210.964, 5798.919 1352.600, 5798.509 1353.750 C 5798.153 1354.748, 5841.833 1354.998, 6014.781 1354.992 L 6231.500 1354.985 6287.449 1112.374 L 6343.399 869.763 6346.235 875.632 C 6347.796 878.859, 6398.961 987.925, 6459.937 1118 L 6570.802 1354.500 6777.125 1354.500 L 6983.448 1354.500 7007.189 1250 C 7020.247 1192.525, 7030.946 1145.391, 7030.965 1145.257 C 7030.984 1145.123, 7000.339 1144.898, 6962.865 1144.757 L 6894.731 1144.500 6808.486 961.584 L 6722.241 778.667 6726.871 775.024 C 6729.417 773.020, 6836.125 690.458, 6964 591.553 C 7091.875 492.647, 7197.388 410.887, 7198.472 409.863 C 7200.396 408.045, 7195.317 408, 6990.472 408.010 L 6780.500 408.019 6581.117 555.044 C 6471.457 635.907, 6381.579 701.913, 6381.389 701.722 C 6381.199 701.532, 6406.908 589.448, 6438.521 452.646 C 6470.135 315.845, 6496 203.486, 6496 202.958 C 6496 202.350, 6416.946 202, 6279.625 202 L 6063.250 202 6062.682 204.750 M 1953.620 409.750 C 1952.602 413.216, 1737 1353.026, 1737 1354.001 C 1737 1354.663, 1809.928 1355, 1953.315 1355 L 2169.630 1355 2277.830 882.750 C 2337.340 623.012, 2386.023 409.938, 2386.015 409.250 C 2386.003 408.254, 2342.139 408, 2170.067 408 C 1965.280 408, 1954.108 408.090, 1953.620 409.750 M 4911.877 409.079 C 4843.625 412.071, 4783.330 423.503, 4734.500 442.711 C 4654.623 474.131, 4601.934 529.372, 4580.989 603.657 C 4577.052 617.619, 4457.322 1141.738, 4455.497 1153 C 4450.204 1185.655, 4451.291 1215.890, 4458.596 1239.171 C 4464.805 1258.958, 4474.421 1274.690, 4489.384 1289.537 C 4520.755 1320.665, 4570.987 1340.379, 4642 1349.431 C 4682.806 1354.633, 4659.219 1354.385, 5145 1354.721 L 5600.500 1355.036 5624.301 1250.768 C 5637.392 1193.421, 5648.079 1146.162, 5648.051 1145.750 C 5648.023 1145.338, 5477.195 1145, 5268.433 1145 C 4907.412 1145, 4888.890 1144.914, 4889.375 1143.250 C 4889.656 1142.287, 4916.716 1024.725, 4949.509 882 C 4982.302 739.275, 5009.377 621.487, 5009.675 620.250 L 5010.217 618 5173.717 618 L 5337.217 618 5336.656 620.250 C 5334.892 627.324, 5242.760 1032.078, 5242.284 1034.843 L 5241.708 1038.186 5319.604 1037.734 C 5401.308 1037.260, 5411.039 1036.823, 5449 1031.924 C 5539.683 1020.222, 5607.183 992.851, 5654.634 948.540 C 5683.973 921.143, 5706.072 884.989, 5717.979 844.909 C 5721.295 833.748, 5768.859 621.658, 5771.552 606.024 C 5772.875 598.344, 5773.105 591.429, 5772.765 569.524 C 5772.312 540.343, 5771.554 535.014, 5765.440 517.989 C 5741.536 451.432, 5662.522 415.092, 5528.500 409.016 C 5502.538 407.839, 4938.846 407.896, 4911.877 409.079 M 7682.877 409.079 C 7589.695 413.164, 7511.079 433.207, 7456.633 466.760 C 7403.631 499.423, 7368.038 546.179, 7351.561 604.784 C 7348.872 614.349, 7228.448 1141.116, 7226.920 1150 C 7214.377 1222.906, 7232.339 1274.165, 7282.023 1307.247 C 7319.556 1332.239, 7370.463 1346.447, 7446.500 1353.151 C 7465.369 1354.815, 8055.065 1355.650, 8086.500 1354.057 C 8137.051 1351.496, 8178.647 1345.499, 8218.545 1335.020 C 8326.149 1306.758, 8393.218 1246.482, 8416.961 1156.702 C 8421.736 1138.646, 8540.870 615.747, 8542.504 605.672 C 8544.604 592.727, 8544.552 553.639, 8542.418 540.926 C 8540.564 529.881, 8535.435 513.786, 8530.915 504.829 C 8501.612 446.761, 8424.432 414.748, 8300 409.051 C 8273.617 407.843, 7710.490 407.868, 7682.877 409.079 M 9072.877 409.079 C 8947.577 414.572, 8854.240 447.354, 8798 505.624 C 8771.508 533.072, 8752.500 566.344, 8741.993 603.657 C 8739.547 612.343, 8640.453 1043.390, 8582.024 1299.500 C 8575.374 1328.650, 8569.737 1353.064, 8569.497 1353.752 C 8569.148 1354.753, 8612.543 1354.954, 8785.778 1354.752 L 9002.495 1354.500 9087.031 986.500 L 9171.567 618.500 9352.540 618.247 L 9533.514 617.995 9557.273 514.247 C 9570.340 457.186, 9581.025 409.938, 9581.016 409.250 C 9581.003 408.253, 9531.357 408.031, 9335.750 408.153 C 9200.862 408.237, 9082.570 408.654, 9072.877 409.079 M 7780.669 620.250 C 7780.368 621.487, 7753.291 739.275, 7720.498 882 C 7687.706 1024.725, 7660.648 1142.287, 7660.370 1143.250 C 7659.891 1144.912, 7668.115 1145, 7823.183 1144.994 L 7986.500 1144.988 8046.912 883.244 C 8080.138 739.285, 8107.528 620.712, 8107.778 619.750 C 8108.210 618.089, 8099.954 618, 7944.725 618 L 7781.217 618 7780.669 620.250" stroke="none" fill="#fffcfc" fill-rule="evenodd"/><path d="" stroke="none" fill="#fcfcfc" fill-rule="evenodd"/></svg>